<svg width="24" height="24" viewBox="0 0 1000 1000" fill="none" xmlns="http://www.w3.org/2000/svg">
<path d="M472.25 1.07467C611.42 -7.82602 739.5 39.111 835.857 121.468C841.764 126.502 841.949 135.582 836.407 140.977C831.589 145.653 824.131 146.017 818.767 141.971C764.317 101.332 693.868 77.7717 611.965 77.7717C379.709 77.7727 154.54 259.305 95.8161 492.536C37.093 725.677 177.727 914.676 409.983 914.676C581.153 914.674 789.503 816.037 851.135 676.765C888.858 591.44 851.584 535.788 808.496 522.661C702.687 490.474 579.334 540.999 552.335 647.811C543.881 681.077 535.153 713.268 527.336 747.613C524.699 758.941 517.155 765.955 506.793 766.225C497.066 766.495 487.888 760.201 485.434 749.592C476.889 712.1 468.162 675.596 456.981 638.554C452.618 623.899 446.522 610.504 438.977 597.467C420.07 564.74 381.893 549.723 345.896 541.451L254.538 520.495C243.903 518.067 236.264 510.07 236.081 500.631C235.991 489.752 242.447 480.852 253.81 478.334L320.808 463.316C343.078 458.281 364.256 452.526 385.526 444.614C416.614 433.106 438.796 410.444 449.977 379.154C464.793 337.706 474.25 295.445 484.43 252.468C487.067 241.321 494.434 233.947 505.159 233.678C515.975 233.41 524.158 240.426 526.794 251.394L542.605 317.032C548.332 340.677 555.065 363.338 564.337 385.545C575.155 411.617 595.697 428.974 620.603 442.28C654.42 460.351 741.871 455.044 848.498 455.044C955.126 455.045 1003.85 517.894 999.763 590.721C994.854 678.834 958.396 739.706 924.126 792.933C850.676 906.94 676.781 999.999 505.612 1000C214.36 1000 -19.4455 756.339 1.27923 463.946C18.9147 216.689 222.086 16.8991 472.25 1.07467Z" fill="currentColor"/>
</svg>
