<svg version="1.0" xmlns="http://www.w3.org/2000/svg"
 width="24" height="24" viewBox="50 10 400 430"
 preserveAspectRatio="xMidYMid meet">
<g transform="translate(0,512) scale(0.1,-0.1)"
fill="currentColor" stroke="none">
<path d="M1469 4465 c-14 -8 -31 -27 -37 -42 -47 -124 -88 -312 -117 -532
l-16 -125 -67 -71 c-81 -84 -150 -211 -184 -335 l-23 -85 0 -997 c0 -991 0
-997 21 -1024 41 -56 69 -69 160 -73 l84 -3 0 -253 c0 -245 1 -254 21 -268 11
-8 29 -13 39 -10 11 3 135 124 276 269 l257 264 761 0 c711 0 767 2 847 19
287 64 501 271 581 562 l23 84 0 710 0 710 -27 97 c-32 115 -68 189 -136 280
-49 67 -49 67 -62 180 -16 152 -74 440 -108 540 -30 90 -62 125 -104 115 -33
-9 -470 -380 -578 -491 l-44 -46 -457 0 -457 0 -35 43 c-59 72 -437 408 -526
467 -50 34 -56 35 -92 15z m198 -321 c32 -26 88 -76 126 -113 73 -72 86 -110
48 -145 -29 -26 -286 -109 -316 -102 -14 4 -32 17 -41 31 -15 23 -15 34 6 157
26 155 40 195 72 208 37 15 45 12 105 -36z m1962 18 c23 -23 31 -46 50 -142
28 -152 28 -204 -1 -224 -31 -22 -41 -21 -179 25 -153 51 -177 63 -185 93 -9
39 20 79 118 163 150 128 153 129 197 85z m-1234 -1368 c53 -25 105 -74 133
-128 22 -42 27 -64 27 -126 0 -66 -4 -82 -31 -130 -38 -67 -97 -115 -171 -136
-127 -37 -268 34 -325 164 -16 35 -19 61 -17 122 4 69 8 82 41 133 42 62 107
107 172 118 52 9 132 1 171 -17z m936 -10 c52 -26 104 -81 127 -133 23 -54 21
-166 -4 -222 -45 -97 -146 -164 -249 -163 -245 0 -370 294 -199 467 21 21 51
45 67 53 73 38 180 38 258 -2z"/>
</g>
</svg>
